# xmcd CD database file
#
# Track frame offsets:
#	150
#	21385
#	43520
#	64870
#
# Disc length: 1145 seconds
#
# Revision: 0
# Processed by: cddbd v1.5PL3 Copyright (c) Steve Scherf et al.
# Submitted via: CDex 1.50beta9
#
DISCID=30047704
DTITLE=BEGIN - 声のおまもりください
DYEAR=1996
DGENRE=J-POP
TTITLE0=声のおまもりください
TTITLE1=満天の星
TTITLE2=声のおまもりください／MRZ　with　BEGIN
TTITLE3=声のおまもりください　カラオケ
EXTD=YEAR: 1996
EXTT0=
EXTT1=
EXTT2=
EXTT3=
PLAYORDER=
